<?xml version="1.0" standalone="no"?>
<svg viewBox="0 0 200 200" xmlns="http://www.w3.org/2000/svg">
  <path fill="#F1C21B" d="M44.1,-75C58.5,-68.1,72.4,-59,78,-46.1C83.6,-33.2,80.9,-16.6,79.4,-0.8C78,14.9,77.8,29.9,71.1,40.8C64.4,51.8,51.2,58.9,38.3,66.1C25.4,73.2,12.7,80.6,-0.5,81.5C-13.8,82.5,-27.6,77,-39.5,69.3C-51.5,61.5,-61.6,51.5,-68.1,39.6C-74.6,27.6,-77.4,13.8,-76.3,0.6C-75.2,-12.5,-70.2,-25.1,-64.8,-38.9C-59.4,-52.7,-53.6,-67.8,-42.8,-76.8C-31.9,-85.7,-16,-88.5,-0.5,-87.6C14.9,-86.6,29.7,-81.9,44.1,-75Z" transform="translate(100 100)" />
</svg>
